<svg width="24" height="25" viewBox="0 0 24 25" fill="none" xmlns="http://www.w3.org/2000/svg">
<path opacity="0.1" fill-rule="evenodd" clip-rule="evenodd" d="M0 12.3857C0 5.75832 5.37258 0.385735 12 0.385735C18.6274 0.385735 24 5.75832 24 12.3857C24 19.0132 18.6274 24.3857 12 24.3857C5.37258 24.3857 0 19.0132 0 12.3857Z" fill="#F9F8F9"/>
<path fill-rule="evenodd" clip-rule="evenodd" d="M18.3996 12.3769C18.3996 12.8097 18.3555 13.2419 18.269 13.6632C18.1846 14.0745 18.0596 14.4783 17.8958 14.8643C17.7359 15.2435 17.5374 15.6089 17.3055 15.9497C17.0771 16.2883 16.8139 16.606 16.5248 16.8956C16.2351 17.1839 15.9164 17.4463 15.5779 17.6757C15.236 17.906 14.8701 18.1042 14.4907 18.2649C14.1041 18.4278 13.6994 18.5526 13.2884 18.6369C12.8666 18.7237 12.4328 18.768 11.9993 18.768C11.5656 18.768 11.1318 18.7237 10.7105 18.6369C10.2989 18.5526 9.89422 18.4278 9.50795 18.2649C9.12856 18.1042 8.76228 17.906 8.42039 17.6757C8.08194 17.4464 7.76317 17.1839 7.47409 16.8956C7.18471 16.606 6.92156 16.2883 6.6928 15.9497C6.46216 15.6089 6.26339 15.2435 6.10277 14.8643C5.93899 14.4783 5.81369 14.0745 5.72899 13.6632C5.64337 13.2419 5.59961 12.8097 5.59961 12.3769C5.59961 11.9437 5.64335 11.5106 5.72902 11.0902C5.81371 10.6789 5.93902 10.2745 6.10279 9.88906C6.26342 9.50959 6.46219 9.14386 6.69283 8.80307C6.92159 8.46418 7.18474 8.1471 7.47412 7.85719C7.7632 7.56883 8.08196 7.30703 8.42042 7.07797C8.7623 6.84672 9.12859 6.64858 9.50797 6.48754C9.89425 6.3243 10.2989 6.19918 10.7105 6.11556C11.1318 6.02943 11.5656 5.98573 11.9993 5.98573C12.4328 5.98573 12.8666 6.02943 13.2885 6.11556C13.6994 6.1992 14.1041 6.32432 14.4907 6.48754C14.8701 6.64856 15.2361 6.84672 15.5779 7.07797C15.9164 7.30703 16.2352 7.56883 16.5249 7.85719C16.814 8.1471 17.0771 8.46418 17.3055 8.80307C17.5374 9.14386 17.7359 9.50962 17.8958 9.88906C18.0596 10.2745 18.1846 10.6789 18.269 11.0902C18.3555 11.5106 18.3996 11.9437 18.3996 12.3769ZM9.6673 7.44027C8.14314 8.15897 7.00558 9.56139 6.65087 11.2515C6.79496 11.2528 9.07258 11.2815 11.6968 10.5853C10.7508 8.90697 9.74012 7.53735 9.6673 7.44027ZM12.1496 11.4257C9.33541 12.267 6.63494 12.2065 6.53807 12.2027C6.53649 12.2614 6.53369 12.3182 6.53369 12.3769C6.53369 13.7789 7.0634 15.0572 7.93407 16.0237C7.93219 16.0208 9.42792 13.3711 12.3774 12.4187C12.4487 12.395 12.5212 12.3737 12.5931 12.3531C12.4559 12.043 12.3062 11.7321 12.1496 11.4257ZM15.6089 8.28067C14.6466 7.43339 13.3831 6.91946 11.9993 6.91946C11.5552 6.91946 11.1242 6.97314 10.7114 7.07237C10.7933 7.18223 11.8199 8.54219 12.7546 10.256C14.817 9.484 15.5954 8.30063 15.6089 8.28067ZM12.9656 13.2575C12.9535 13.2615 12.9413 13.265 12.9294 13.2694C9.70458 14.392 8.65148 16.6543 8.64008 16.679C9.56796 17.3995 10.7318 17.8343 11.9993 17.8343C12.7562 17.8343 13.4772 17.6804 14.1332 17.4017C14.0522 16.9249 13.7347 15.2535 12.9656 13.2575ZM15.0535 16.9031C16.2808 16.0761 17.1524 14.7629 17.3955 13.2419C17.283 13.2057 15.7539 12.7223 13.9897 13.0047C14.7066 14.972 14.9979 16.5742 15.0535 16.9031ZM13.1753 11.0693C13.3022 11.3296 13.425 11.5945 13.5385 11.8607C13.5788 11.9562 13.6182 12.0498 13.6566 12.1434C15.5342 11.9075 17.384 12.3044 17.4631 12.3206C17.4506 11.0268 16.9871 9.83942 16.2202 8.9098C16.2099 8.92443 15.3333 10.1892 13.1753 11.0693Z" fill="white"/>
</svg>
