<svg width="37" height="37" viewBox="0 0 37 37" fill="none" xmlns="http://www.w3.org/2000/svg">
<path d="M23.1246 3.08325C17.9181 3.08544 13.456 6.80579 12.5176 11.927C16.9991 9.47465 22.6201 11.1196 25.0725 15.6011C26.5865 18.3678 26.5865 21.7153 25.0725 24.482C30.9328 23.4084 34.8133 17.7874 33.7398 11.9271C32.8011 6.80269 28.3343 3.08128 23.1246 3.08325Z" fill="#C3E8F1"/>
<path d="M10.7913 33.9167C15.0485 33.9167 18.4997 30.4655 18.4997 26.2083C18.4997 21.9511 15.0485 18.5 10.7913 18.5C6.53415 18.5 3.08301 21.9511 3.08301 26.2083C3.08301 30.4655 6.53415 33.9167 10.7913 33.9167Z" fill="#027794"/>
<path d="M16.9586 10.7917C12.2051 10.7922 8.22569 14.3955 7.75488 19.1257C11.6642 17.4461 16.195 19.2536 17.8747 23.163C18.7089 25.1047 18.7089 27.3038 17.8747 29.2455C22.958 28.74 26.6691 24.2094 26.1636 19.1261C25.6932 14.3952 21.7129 10.7913 16.9586 10.7917Z" fill="#52A0B4"/>
</svg>
