<svg width="24" height="25" viewBox="0 0 24 25" fill="none" xmlns="http://www.w3.org/2000/svg">
<path opacity="0.1" fill-rule="evenodd" clip-rule="evenodd" d="M0 12.3857C0 5.75832 5.37258 0.385735 12 0.385735C18.6274 0.385735 24 5.75832 24 12.3857C24 19.0132 18.6274 24.3857 12 24.3857C5.37258 24.3857 0 19.0132 0 12.3857Z" fill="#F9F8F9"/>
<path fill-rule="evenodd" clip-rule="evenodd" d="M12.0002 5.98573C10.2621 5.98573 10.0439 5.99333 9.36125 6.0244C8.67991 6.0556 8.21484 6.16347 7.8079 6.32174C7.38696 6.4852 7.02989 6.70387 6.67415 7.05974C6.31815 7.41548 6.09948 7.77255 5.93548 8.19336C5.77681 8.60043 5.66881 9.06563 5.63814 9.74671C5.60761 10.4294 5.59961 10.6476 5.59961 12.3858C5.59961 14.124 5.60734 14.3414 5.63828 15.0241C5.66961 15.7054 5.77748 16.1705 5.93561 16.5774C6.09921 16.9984 6.31788 17.3555 6.67375 17.7112C7.02936 18.0672 7.38643 18.2864 7.8071 18.4499C8.2143 18.6081 8.67951 18.716 9.36072 18.7472C10.0434 18.7783 10.2614 18.7859 11.9994 18.7859C13.7377 18.7859 13.9552 18.7783 14.6378 18.7472C15.3192 18.716 15.7848 18.6081 16.192 18.4499C16.6128 18.2864 16.9693 18.0672 17.3249 17.7112C17.6809 17.3555 17.8996 16.9984 18.0636 16.5776C18.2209 16.1705 18.3289 15.7053 18.3609 15.0242C18.3916 14.3416 18.3996 14.124 18.3996 12.3858C18.3996 10.6476 18.3916 10.4295 18.3609 9.74684C18.3289 9.0655 18.2209 8.60043 18.0636 8.19349C17.8996 7.77255 17.6809 7.41548 17.3249 7.05974C16.9689 6.70374 16.6129 6.48507 16.1916 6.32174C15.7836 6.16347 15.3182 6.0556 14.6369 6.0244C13.9542 5.99333 13.7369 5.98573 11.9982 5.98573H12.0002ZM11.426 7.13906C11.5964 7.13879 11.7866 7.13906 12.0002 7.13906C13.709 7.13906 13.9115 7.14519 14.5863 7.17586C15.2103 7.20439 15.549 7.30866 15.7746 7.39626C16.0733 7.51226 16.2862 7.65093 16.5101 7.87493C16.7341 8.09894 16.8728 8.31227 16.989 8.61094C17.0766 8.83628 17.181 9.17495 17.2094 9.79895C17.2401 10.4736 17.2468 10.6763 17.2468 12.3843C17.2468 14.0923 17.2401 14.295 17.2094 14.9697C17.1809 15.5937 17.0766 15.9324 16.989 16.1577C16.873 16.4564 16.7341 16.669 16.5101 16.8929C16.2861 17.1169 16.0734 17.2556 15.7746 17.3716C15.5493 17.4596 15.2103 17.5636 14.5863 17.5921C13.9117 17.6228 13.709 17.6294 12.0002 17.6294C10.2912 17.6294 10.0887 17.6228 9.41402 17.5921C8.79002 17.5633 8.45134 17.459 8.22561 17.3714C7.92694 17.2554 7.7136 17.1168 7.4896 16.8928C7.2656 16.6688 7.12693 16.456 7.01066 16.1572C6.92306 15.9318 6.81866 15.5931 6.79026 14.9691C6.75959 14.2945 6.75346 14.0918 6.75346 12.3827C6.75346 10.6736 6.75959 10.472 6.79026 9.79735C6.81879 9.17335 6.92306 8.83468 7.01066 8.60908C7.12666 8.31041 7.2656 8.09707 7.4896 7.87307C7.7136 7.64907 7.92694 7.5104 8.22561 7.39413C8.45121 7.30613 8.79002 7.20213 9.41402 7.17346C10.0044 7.14679 10.2332 7.13879 11.426 7.13746V7.13906ZM15.4165 8.20174C14.9925 8.20174 14.6485 8.54534 14.6485 8.96948C14.6485 9.39349 14.9925 9.73749 15.4165 9.73749C15.8405 9.73749 16.1845 9.39349 16.1845 8.96948C16.1845 8.54548 15.8405 8.20174 15.4165 8.20174ZM12.0002 9.09908C10.1851 9.09908 8.71352 10.5707 8.71352 12.3858C8.71352 14.2009 10.1851 15.6718 12.0002 15.6718C13.8153 15.6718 15.2864 14.2009 15.2864 12.3858C15.2864 10.5707 13.8153 9.09908 12.0002 9.09908ZM12.0002 10.2524C13.1783 10.2524 14.1336 11.2075 14.1336 12.3858C14.1336 13.5639 13.1783 14.5191 12.0002 14.5191C10.8219 14.5191 9.86684 13.5639 9.86684 12.3858C9.86684 11.2075 10.8219 10.2524 12.0002 10.2524Z" fill="white"/>
</svg>
