<svg width="37" height="37" viewBox="0 0 37 37" fill="none" xmlns="http://www.w3.org/2000/svg">
<path d="M27.3443 22.5422L23.6042 25.9811C21.6811 27.6576 19.4216 28.9033 16.9774 29.6346L17.9698 34.2645C18.0205 34.5009 18.1261 34.7221 18.278 34.9102C18.4299 35.0983 18.6239 35.248 18.8444 35.3473C19.0649 35.4465 19.3056 35.4926 19.5471 35.4817C19.7886 35.4708 20.0242 35.4033 20.2348 35.2845L26.2555 31.8888C27.1028 31.3739 27.7648 30.6032 28.1458 29.6878C28.5267 28.7724 28.6071 27.7596 28.3753 26.7956L27.3443 22.5422ZM11.2016 13.5296L14.4217 9.70642L10.4059 8.73751C9.42966 8.39708 8.36318 8.42144 7.40346 8.80609C6.44375 9.19074 5.65566 9.90968 5.18474 10.8301L1.79278 16.8425C1.67393 17.0531 1.60629 17.2887 1.59533 17.5302C1.58437 17.7718 1.6304 18.0126 1.72969 18.2331C1.82899 18.4536 1.97876 18.6476 2.16691 18.7995C2.35506 18.9514 2.57631 19.0569 2.81278 19.1075L7.54993 20.123C8.33528 17.7123 9.57481 15.4742 11.2016 13.5296V13.5296ZM25.7983 13.5918C26.2556 13.5918 26.7027 13.4562 27.083 13.2021C27.4633 12.948 27.7597 12.5868 27.9347 12.1643C28.1098 11.7417 28.1556 11.2768 28.0663 10.8282C27.9771 10.3796 27.7569 9.96754 27.4335 9.64413C27.11 9.32072 26.698 9.10048 26.2494 9.01125C25.8008 8.92202 25.3359 8.96782 24.9133 9.14285C24.4908 9.31787 24.1296 9.61427 23.8755 9.99456C23.6214 10.3749 23.4858 10.8219 23.4858 11.2793C23.486 11.8926 23.7297 12.4806 24.1633 12.9143C24.597 13.3479 25.185 13.5916 25.7983 13.5918V13.5918Z" fill="#027794"/>
<path d="M34.8433 3.17904C34.7737 2.91498 34.6353 2.67412 34.4422 2.48103C34.2491 2.28795 34.0083 2.14956 33.7442 2.08C30.5817 1.25793 27.2513 1.34608 24.1367 2.33429C21.0221 3.32251 18.2501 5.17057 16.14 7.66555L11.2011 13.5296C8.73384 16.4724 7.16864 20.0649 6.69355 23.8756C6.66308 24.1098 6.68681 24.3479 6.7629 24.5715C6.83898 24.795 6.9654 24.9981 7.1324 25.1651L11.9117 29.9444C12.0548 30.0876 12.2247 30.2012 12.4118 30.2788C12.5988 30.3563 12.7992 30.3961 13.0017 30.3961C13.0461 30.3961 13.0905 30.3939 13.1357 30.3901C17.0049 30.0704 20.6716 28.526 23.6036 25.9812L29.2509 20.7886C31.7547 18.684 33.6095 15.9118 34.5995 12.7944C35.5895 9.67702 35.6741 6.34259 34.8433 3.17904V3.17904ZM25.7977 13.5918C25.3404 13.5918 24.8933 13.4562 24.513 13.2021C24.1327 12.948 23.8363 12.5868 23.6613 12.1642C23.4862 11.7417 23.4404 11.2767 23.5297 10.8281C23.6189 10.3796 23.8391 9.96752 24.1625 9.64411C24.486 9.3207 24.898 9.10045 25.3466 9.01123C25.7952 8.922 26.2601 8.96779 26.6827 9.14282C27.1052 9.31785 27.4664 9.61425 27.7205 9.99454C27.9746 10.3748 28.1102 10.8219 28.1102 11.2793C28.11 11.8925 27.8663 12.4806 27.4327 12.9142C26.999 13.3479 26.411 13.5916 25.7977 13.5918V13.5918Z" fill="#C3E8F1"/>
</svg>
