<svg width="24" height="25" viewBox="0 0 24 25" fill="none" xmlns="http://www.w3.org/2000/svg">
<path opacity="0.1" fill-rule="evenodd" clip-rule="evenodd" d="M0 12.3857C0 5.75832 5.37258 0.385735 12 0.385735C18.6274 0.385735 24 5.75832 24 12.3857C24 19.0132 18.6274 24.3857 12 24.3857C5.37258 24.3857 0 19.0132 0 12.3857Z" fill="#F9F8F9"/>
<path fill-rule="evenodd" clip-rule="evenodd" d="M11.6406 10.1395L11.6658 10.5547L11.2461 10.5039C9.71843 10.309 8.38383 9.648 7.25067 8.5379L6.69668 7.98709L6.55399 8.39384C6.25181 9.30056 6.44487 10.2581 7.0744 10.9022C7.41015 11.2581 7.33461 11.3089 6.75544 11.0971C6.55399 11.0293 6.37772 10.9784 6.36093 11.0038C6.30218 11.0632 6.50363 11.8343 6.66311 12.1394C6.88134 12.5631 7.32621 12.9783 7.81305 13.224L8.22434 13.4189L7.73751 13.4274C7.26746 13.4274 7.25067 13.4359 7.30103 13.6138C7.46891 14.1647 8.13201 14.7494 8.87066 15.0036L9.39108 15.1815L8.93781 15.4527C8.26631 15.8425 7.4773 16.0628 6.68829 16.0798C6.31057 16.0883 6 16.1222 6 16.1476C6 16.2323 7.02404 16.7069 7.61999 16.8933C9.40786 17.4441 11.5315 17.2068 13.1263 16.2662C14.2595 15.5968 15.3926 14.2663 15.9214 12.9783C16.2068 12.2919 16.4922 11.0377 16.4922 10.4361C16.4922 10.0463 16.5174 9.99543 16.9874 9.52936C17.2644 9.25819 17.5246 8.9616 17.575 8.87686C17.6589 8.71586 17.6505 8.71586 17.2224 8.85991C16.509 9.11413 16.4083 9.08024 16.7608 8.69891C17.021 8.42774 17.3316 7.93625 17.3316 7.79219C17.3316 7.76677 17.2057 7.80914 17.063 7.8854C16.9119 7.97014 16.5761 8.09725 16.3243 8.17352L15.8711 8.31758L15.4598 8.03793C15.2331 7.8854 14.9142 7.71592 14.7463 7.66508C14.3182 7.54644 13.6635 7.56339 13.2774 7.69897C12.2282 8.0803 11.5651 9.06329 11.6406 10.1395Z" fill="white"/>
</svg>
