<svg width="37" height="37" viewBox="0 0 37 37" fill="none" xmlns="http://www.w3.org/2000/svg">
<path d="M9.25033 25.4374C8.18313 25.4374 7.1399 25.121 6.25256 24.5281C5.36522 23.9352 4.67363 23.0924 4.26523 22.1065C3.85683 21.1205 3.74997 20.0356 3.95817 18.9889C4.16637 17.9422 4.68028 16.9808 5.4349 16.2262C6.18952 15.4715 7.15096 14.9576 8.19765 14.7494C9.24434 14.5412 10.3293 14.6481 11.3152 15.0565C12.3012 15.4649 13.1439 16.1565 13.7368 17.0438C14.3297 17.9312 14.6462 18.9744 14.6462 20.0416C14.6444 21.4721 14.0754 22.8436 13.0638 23.8551C12.0523 24.8666 10.6809 25.4357 9.25033 25.4374Z" fill="#0388A9"/>
<path d="M13.3207 23.5439C12.8212 24.137 12.198 24.6138 11.4949 24.9409C10.7919 25.2679 10.0258 25.4374 9.25033 25.4374C8.47488 25.4374 7.7088 25.2679 7.0057 24.9409C6.3026 24.6138 5.67947 24.137 5.17992 23.5439C4.06991 24.2321 3.15346 25.1917 2.51697 26.3322C1.88049 27.4726 1.54495 28.7564 1.54199 30.0624C1.54199 30.4713 1.70442 30.8634 1.99354 31.1525C2.28265 31.4417 2.67478 31.6041 3.08366 31.6041H15.417C15.8259 31.6041 16.218 31.4417 16.5071 31.1525C16.7962 30.8634 16.9587 30.4713 16.9587 30.0624C16.9557 28.7564 16.6202 27.4726 15.9837 26.3322C15.3472 25.1917 14.4307 24.2321 13.3207 23.5439V23.5439ZM27.7503 25.4374C26.6831 25.4374 25.6399 25.121 24.7526 24.5281C23.8652 23.9352 23.1736 23.0924 22.7652 22.1065C22.3568 21.1205 22.25 20.0356 22.4582 18.9889C22.6664 17.9422 23.1803 16.9808 23.9349 16.2262C24.6895 15.4715 25.651 14.9576 26.6977 14.7494C27.7443 14.5412 28.8293 14.6481 29.8152 15.0565C30.8012 15.4649 31.6439 16.1565 32.2368 17.0438C32.8297 17.9312 33.1462 18.9744 33.1462 20.0416C33.1444 21.4721 32.5754 22.8436 31.5638 23.8551C30.5523 24.8666 29.1809 25.4357 27.7503 25.4374Z" fill="#C3E8F1"/>
<path d="M31.8207 23.5439C31.3212 24.137 30.698 24.6138 29.9949 24.9409C29.2919 25.2679 28.5258 25.4374 27.7503 25.4374C26.9749 25.4374 26.2088 25.2679 25.5057 24.9409C24.8026 24.6138 24.1795 24.137 23.6799 23.5439C22.5699 24.2321 21.6535 25.1917 21.017 26.3322C20.3805 27.4726 20.045 28.7564 20.042 30.0624C20.042 30.4713 20.2044 30.8634 20.4935 31.1526C20.7827 31.4417 21.1748 31.6041 21.5837 31.6041H33.917C34.3259 31.6041 34.718 31.4417 35.0071 31.1526C35.2962 30.8634 35.4587 30.4713 35.4587 30.0624C35.4557 28.7564 35.1202 27.4726 34.4837 26.3322C33.8472 25.1917 32.9307 24.2321 31.8207 23.5439V23.5439Z" fill="#027794"/>
<path d="M26.5271 8.93085L23.4438 5.84751C23.1538 5.56275 22.7631 5.40402 22.3567 5.40586C21.9503 5.4077 21.561 5.56996 21.2737 5.85734C20.9863 6.14472 20.824 6.53395 20.8222 6.94036C20.8204 7.34677 20.9791 7.73746 21.2638 8.02743L21.7156 8.47914H15.2838L15.7355 8.02743C16.0216 7.73772 16.1814 7.34659 16.1801 6.93945C16.1789 6.5323 16.0165 6.1422 15.7286 5.8543C15.4407 5.56641 15.0506 5.40411 14.6435 5.40284C14.2363 5.40157 13.8452 5.56142 13.5555 5.84751L10.4722 8.93085C10.329 9.07396 10.2154 9.24388 10.1379 9.43091C10.0604 9.61794 10.0205 9.8184 10.0205 10.0208C10.0205 10.2233 10.0604 10.4238 10.1379 10.6108C10.2154 10.7978 10.329 10.9677 10.4722 11.1109L13.5555 14.1942C13.8452 14.4803 14.2363 14.6401 14.6435 14.6388C15.0506 14.6375 15.4407 14.4752 15.7286 14.1873C16.0165 13.8994 16.1788 13.5093 16.1801 13.1021C16.1814 12.695 16.0215 12.3039 15.7354 12.0142L15.2837 11.5625H21.7154L21.2637 12.0142C20.9746 12.3033 20.8122 12.6954 20.8122 13.1042C20.8122 13.513 20.9747 13.9051 21.2637 14.1942C21.5528 14.4833 21.9449 14.6457 22.3538 14.6456C22.7626 14.6456 23.1547 14.4832 23.4438 14.1941L26.5271 11.1108C26.6703 10.9676 26.7838 10.7977 26.8613 10.6107C26.9388 10.4237 26.9787 10.2232 26.9787 10.0208C26.9787 9.81837 26.9388 9.61791 26.8613 9.43089C26.7838 9.24388 26.6703 9.07396 26.5271 8.93085V8.93085Z" fill="#027794"/>
</svg>
