<svg width="24" height="25" viewBox="0 0 24 25" fill="none" xmlns="http://www.w3.org/2000/svg">
<path opacity="0.1" fill-rule="evenodd" clip-rule="evenodd" d="M0 12.3857C0 5.75832 5.37258 0.385735 12 0.385735C18.6274 0.385735 24 5.75832 24 12.3857C24 19.0132 18.6274 24.3857 12 24.3857C5.37258 24.3857 0 19.0132 0 12.3857Z" fill="#F9F8F9"/>
<path fill-rule="evenodd" clip-rule="evenodd" d="M17.0004 8.26042C17.5512 8.41155 17.9849 8.85686 18.1321 9.42237C18.3996 10.4473 18.3996 12.5858 18.3996 12.5858C18.3996 12.5858 18.3996 14.7242 18.1321 15.7491C17.9849 16.3147 17.5512 16.76 17.0004 16.9112C16.0023 17.1858 11.9996 17.1858 11.9996 17.1858C11.9996 17.1858 7.99692 17.1858 6.99874 16.9112C6.44797 16.76 6.01423 16.3147 5.86703 15.7491C5.59961 14.7242 5.59961 12.5858 5.59961 12.5858C5.59961 12.5858 5.59961 10.4473 5.86703 9.42237C6.01423 8.85686 6.44797 8.41155 6.99874 8.26042C7.99692 7.98576 11.9996 7.98576 11.9996 7.98576C11.9996 7.98576 16.0023 7.98576 17.0004 8.26042ZM10.7996 10.7857V14.7857L13.9996 12.7858L10.7996 10.7857Z" fill="white"/>
</svg>
